<?xml version="1.0" encoding="utf-8"?>
<!-- Generator: Adobe Illustrator 18.0.0, SVG Export Plug-In . SVG Version: 6.00 Build 0) -->
<!DOCTYPE svg PUBLIC "-//W3C//DTD SVG 1.1//EN" "http://www.w3.org/Graphics/SVG/1.1/DTD/svg11.dtd">
<svg version="1.1" id="Layer_1" xmlns="http://www.w3.org/2000/svg" xmlns:xlink="http://www.w3.org/1999/xlink" x="0px" y="0px"
     width="300px" height="300px" viewBox="0 0 300 300" style="enable-background:new 0 0 300 300;" xml:space="preserve">
    <g>
        <path d="M152.1,64.7c2.3,2.3,6.2,2.3,8.5,0l27-27c2.3-2.3,2.3-6.2,0-8.5l-27-27c-2.3-2.3-6.2-2.3-8.5,0l-27,27
            c-2.3,2.3-2.3,6.2,0,8.5L152.1,64.7z"/>
        <path d="M271.2,142.1l-29.5-29.5c-2.3-2.3-6.2-2.3-8.5,0l-29.5,29.5c-2.3,2.3-2.3,6.2,0,8.5l29.5,29.5c2.3,2.3,6.2,2.3,8.5,0
            l29.5-29.5C273.6,148.2,273.6,144.4,271.2,142.1z"/>
        <path d="M108.6,220.4l-27-27c-2.3-2.3-6.2-2.3-8.5,0l-27,27c-2.3-2.3-2.3,6.2,0,8.5l27,27c2.3,2.3,6.2,2.3,8.5,0l27-27
            C110.9,226.6,110.9,222.7,108.6,220.4z"/>
        <path d="M121.4,232.9c-2.3-2.3-6.2-2.3,0l-27,27c-2.3-2.3-2.3,6.2,0,8.5l27,27c2.3,2.3,6.2,2.3,8.5,0l27-27
            c2.3-2.3,2.3-6.2,0-8.5L121.4,232.9z"/>
        <path d="M121.1,216.8l83.8-83.8c2.3-2.3,2.3-6.2,0-8.5l-83.8-83.8c-2.3-2.3-6.2-2.3-8.5,0l-83.8,83.8c-2.3,2.3-2.3,6.2,0,8.5
            l83.8,83.8C114.9,219.1,118.7,219.1,121.1,216.8z"/>
        <path d="M200,154.4c-2.3-2.3-6.2-2.3-8.5,0L125,220.9c-2.3,2.3-2.3,6.2,0,8.5l66.5,66.5c2.3,2.3,6.2,2.3,8.5,0l66.5-66.5
            c2.3-2.3,2.3-6.2,0-8.5L200,154.4z"/>
    </g>
    <!-- GitHub Icon -->
    <g transform="translate(120, 120)">
        <path d="M24,12c0-6.627-5.373-12-12-12s-12,5.373-12,12c0,5.302,3.438,9.8,8.205,11.396
            c0.6,0.111,0.8-0.257,0.8-0.577c0-0.285-0.01-1.042-0.016-2.048c-3.338,0.726-4.043-1.604-4.043-1.604c-0.547-1.389-1.338-1.759-1.338-1.759
            c-1.091-0.743,0.082-0.73,0.082-0.73c1.208,0.084,1.843,1.241,1.843,1.241c1.071,1.835,2.81,1.303,3.493,1.001c0.107-0.773,0.419-1.302,0.763-1.402
            c-2.669-0.303-5.469-1.333-5.469-5.928c0-1.309,0.469-2.379,1.236-3.219c-0.124-0.303-0.536-1.522,0.05-3.134
            c0,0,1.008-0.324,3.301,1.236c0.96-0.267,1.984-0.397,2.993-0.401c1.01,0.004,2.033,0.134,2.993,0.401c2.293-1.56,3.301-1.236,3.301-1.236
            c0.586,1.612,0.175,2.831,0.05,3.134c0.767,0.839,1.236,1.91,1.236,3.219c0,4.595-2.801,5.624-5.471,5.928
            c0.431,0.373,0.818,1.103,0.818,2.22c0,1.603-0.013,2.895-0.013,3.289c0,0.319,0.2,0.688,0.803,0.577C20.563,21.799,24,17.302,24,12z"
            fill="#181616"/>
    </g>
</svg>
